<svg fill="none" height="194" viewBox="0 0 140 194" width="140" xmlns="http://www.w3.org/2000/svg" xmlns:xlink="http://www.w3.org/1999/xlink"><linearGradient id="a" gradientUnits="userSpaceOnUse" x1="115.688" x2="32.0458" y1="119.848" y2="116.305"><stop offset="0"/><stop offset="1" stop-opacity=".91"/></linearGradient><linearGradient id="b" gradientUnits="userSpaceOnUse" x1="49.0864" x2="131.024" y1="28.948" y2="28.948"><stop offset="0" stop-color="#ef8659"/><stop offset="1" stop-color="#cc6e89"/></linearGradient><linearGradient id="c" gradientUnits="userSpaceOnUse" x1="138.383" x2="37.4647" y1="134.362" y2="134.362"><stop offset="0" stop-color="#09006e"/><stop offset="1" stop-color="#09006e" stop-opacity=".5"/></linearGradient><rect fill="#09006e" fill-opacity=".22" height="140" rx="33" width="140"/><path d="m15.695 180v-24.43h11.55c1.1433 0 2.17.198 3.08.595.91.373 1.68.898 2.31 1.575.6533.677 1.155 1.505 1.505 2.485.35.957.525 2.007.525 3.15 0 1.167-.175 2.228-.525 3.185s-.8517 1.773-1.505 2.45c-.63.677-1.4 1.213-2.31 1.61-.91.373-1.9367.56-3.08.56h-6.23v8.82zm5.32-13.44h5.6c.7933 0 1.4117-.198 1.855-.595.4667-.42.7-1.027.7-1.82v-1.54c0-.793-.2333-1.388-.7-1.785-.4433-.42-1.0617-.63-1.855-.63h-5.6zm17.6488 13.44v-24.43h5.32v19.705h9.31v4.725zm34.1906 0-1.75-5.81h-8.155l-1.75 5.81h-5.39l8.05-24.43h6.58l7.945 24.43zm-5.775-19.6h-.175l-2.695 9.275h5.6zm18.209 19.6v-9.555l-8.365-14.875h5.95l5.25 9.73h.07l5.04-9.73h5.775l-8.365 14.84v9.59zm35.2006-19.705v19.705h-5.32v-19.705h-6.615v-4.725h18.55v4.725z" fill="#09006e"/><rect fill="url(#a)" fill-opacity=".74" height="27.896" rx="13.948" transform="matrix(.80901699 -.58778525 .58778525 .80901699 -54.687875 38.564028)" width="88.6108" x="32" y="103.438"/><rect fill="url(#b)" height="27.896" rx="13.948" transform="matrix(.81915204 .57357644 -.57357644 .81915204 17.480822 -25.442083)" width="87.7903" x="49.0864" y="15"/><rect fill="url(#c)" height="27.896" rx="13.948" transform="matrix(0 -1 1 0 -82.9493 157.8787)" width="100.918" x="37.4647" y="120.414"/><path d="m101 163h6v17h-6z" fill="#09006e"/><path d="m101 155.6h6v4.8h-6z" fill="#cc6e89"/></svg>